<svg version="1.1" id="Layer_1" xmlns="http://www.w3.org/2000/svg" xmlns:xlink="http://www.w3.org/1999/xlink" x="0px" y="0px"
	 width="100%" viewBox="0 0 2000 2000" enable-background="new 0 0 2000 2000" xml:space="preserve">
<path fill="#000000" opacity="1.000000" stroke="none" 
	d="
M1157.000000,2001.000000 
	C771.333313,2001.000000 386.166656,2001.000000 1.000000,2001.000000 
	C1.000000,1334.333374 1.000000,667.666687 1.000000,1.000000 
	C667.666687,1.000000 1334.333374,1.000000 2001.000000,1.000000 
	C2001.000000,667.666687 2001.000000,1334.333374 2001.000000,2001.000000 
	C1719.833374,2001.000000 1438.666626,2001.000000 1157.000000,2001.000000 
M942.008240,1697.016724 
	C942.008240,1697.016724 941.993774,1697.090576 942.695374,1697.001099 
	C943.822449,1696.361938 944.949524,1695.722778 946.019409,1695.000122 
	C946.019409,1695.000122 946.055786,1695.094116 946.653442,1694.853516 
	C947.462097,1694.252930 948.270752,1693.652344 949.002686,1693.081177 
	C949.002686,1693.081177 949.040466,1693.154175 949.768311,1693.004517 
	C950.671326,1692.683594 951.652710,1692.496826 952.465698,1692.021851 
	C968.496033,1682.655396 984.471802,1673.195190 1000.532227,1663.880859 
	C1014.627563,1655.706177 1028.841675,1647.736328 1042.951050,1639.585815 
	C1057.047729,1631.442749 1071.058594,1623.151001 1085.146484,1614.992554 
	C1097.151611,1608.040283 1109.224854,1601.205566 1121.246338,1594.281372 
	C1137.602905,1584.860229 1153.933960,1575.394165 1170.286255,1565.965454 
	C1179.927368,1560.406616 1189.611694,1554.922241 1199.234619,1549.332031 
	C1210.823120,1542.599976 1222.326904,1535.721680 1233.940918,1529.034424 
	C1245.945068,1522.122681 1258.090332,1515.455566 1270.077271,1508.514893 
	C1283.918945,1500.500366 1297.612671,1492.230591 1311.448975,1484.206665 
	C1325.261475,1476.196655 1339.203735,1468.410400 1353.029663,1460.423462 
	C1369.093262,1451.143555 1384.948853,1441.493896 1401.162598,1432.486694 
	C1415.523926,1424.508545 1428.837524,1415.032715 1441.019165,1404.200928 
	C1451.168579,1395.176147 1460.322510,1384.979248 1469.476929,1374.901489 
	C1481.400635,1361.775146 1490.613647,1346.696533 1498.877930,1331.095459 
	C1507.026733,1315.712158 1513.241577,1299.500854 1517.985474,1282.738281 
	C1522.809937,1265.690674 1525.975220,1248.263916 1526.816040,1230.644897 
	C1527.936890,1207.154419 1526.416260,1183.809570 1521.195679,1160.642944 
	C1514.702515,1131.827881 1504.040405,1104.907959 1487.695312,1080.391479 
	C1480.681641,1069.871338 1473.010010,1059.636597 1464.505005,1050.304077 
	C1454.456055,1039.277466 1443.498291,1029.011475 1432.332153,1019.093933 
	C1424.490723,1012.129272 1415.694458,1006.227356 1407.224854,999.986389 
	C1401.609619,995.848816 1395.818115,991.950745 1389.971680,987.255493 
	C1388.977173,986.214050 1388.090088,985.036926 1386.971558,984.152466 
	C1376.782227,976.095215 1366.635376,967.980225 1356.300171,960.113342 
	C1351.093262,956.149902 1345.523193,952.663513 1339.971680,948.270935 
	C1333.625732,943.177246 1327.279785,938.083496 1320.823242,932.531616 
	C1320.646362,932.219177 1320.380005,932.087708 1320.011841,931.991760 
	C1320.011841,931.991760 1319.866211,932.003052 1319.603394,931.388428 
	C1312.397339,925.950989 1305.191406,920.513550 1297.721558,914.437073 
	C1290.160889,908.586243 1282.600220,902.735413 1274.744995,896.266846 
	C1273.568848,895.417358 1272.375000,894.591370 1271.219727,893.714294 
	C1265.156372,889.110840 1259.102783,884.494446 1252.779053,879.252197 
	C1248.180176,875.660339 1243.600098,872.044067 1238.978882,868.481201 
	C1226.084717,858.540039 1213.136719,848.668274 1200.282471,838.675781 
	C1192.378052,832.531128 1184.606689,826.215149 1176.605835,819.840942 
	C1185.985229,814.279663 1194.871216,808.997498 1203.770386,803.737793 
	C1215.050537,797.070862 1226.347290,790.431946 1237.626221,783.762756 
	C1250.002563,776.444702 1262.345581,769.070129 1274.741333,761.785400 
	C1290.626221,752.450256 1306.570068,743.215515 1322.449219,733.870850 
	C1334.678589,726.673950 1346.847290,719.373901 1359.769531,712.003784 
	C1375.963867,702.716248 1392.178101,693.463318 1408.340454,684.120361 
	C1413.314087,681.245300 1418.145508,678.124390 1423.769531,675.004883 
	C1435.883911,668.018188 1447.998291,661.031433 1460.757690,653.765137 
	C1474.612061,643.570068 1488.857178,633.854309 1502.173218,622.998840 
	C1510.077515,616.555115 1516.641846,608.429382 1523.588379,600.857727 
	C1535.716919,587.637695 1545.447021,572.706055 1553.961548,556.980408 
	C1565.647217,535.397827 1574.045044,512.517883 1578.612549,488.451141 
	C1581.009399,475.821808 1581.488892,462.828583 1583.005371,449.158051 
	C1583.337524,447.271118 1583.997192,445.375549 1583.947632,443.498688 
	C1583.679688,433.345490 1583.236084,423.196930 1582.754395,412.222778 
	C1582.170532,408.722198 1581.738403,405.188232 1580.976318,401.726929 
	C1577.986572,388.148712 1574.892700,374.593414 1571.769775,360.280426 
	C1565.854980,343.909943 1559.303223,327.827484 1550.371948,312.815918 
	C1540.611206,296.410156 1529.921997,280.636047 1516.417114,267.076019 
	C1507.367798,257.989899 1497.582886,249.636169 1487.827637,240.316147 
	C1487.239136,240.049332 1486.556152,239.896790 1486.076050,239.499084 
	C1473.132690,228.777084 1458.842163,219.960266 1443.633423,213.167191 
	C1428.230469,206.287262 1412.176636,200.644058 1396.021606,195.728226 
	C1378.853760,190.504166 1361.065674,187.970276 1342.078491,188.015945 
	C1323.291870,187.615311 1304.621704,188.265686 1286.068237,191.899323 
	C1265.909912,195.847244 1246.237305,201.478333 1228.017700,210.780060 
	C1207.268066,221.373505 1187.277344,233.453461 1166.240479,244.998505 
	C1163.146851,246.960052 1160.053345,248.921600 1156.356567,250.995621 
	C1155.887939,251.294754 1155.419312,251.593872 1154.221069,251.991760 
	C1143.248535,258.309052 1132.280151,264.633667 1121.302368,270.941895 
	C1105.090454,280.257812 1088.872070,289.562012 1072.656372,298.871429 
	C1055.730347,308.588684 1038.773682,318.253265 1021.888062,328.040497 
	C1008.845093,335.600464 995.891296,343.314362 982.171753,351.015503 
	C977.233276,353.768890 972.257751,356.458160 967.362732,359.286774 
	C945.720703,371.792542 924.089050,384.316559 902.483215,396.884766 
	C896.920227,400.120789 891.464661,403.541412 885.229187,406.997314 
	C879.367676,410.282593 873.460632,413.489838 867.658630,416.876984 
	C862.697021,419.773499 857.855957,422.876404 852.232361,426.003235 
	C835.272217,435.716034 818.296387,445.401581 801.361816,455.158752 
	C796.500488,457.959686 791.758423,460.967590 786.232971,463.998444 
	C774.832153,470.492554 763.439087,477.000366 752.028625,483.477509 
	C735.110474,493.081146 718.128906,502.574280 701.269409,512.279724 
	C685.114075,521.579773 669.122314,531.163940 652.981567,540.489563 
	C634.461182,551.190186 615.627930,561.367615 597.343811,572.453796 
	C572.852173,587.303772 550.883789,605.179504 532.683105,627.615601 
	C520.945557,642.084534 509.995880,657.077881 502.240234,673.926147 
	C495.030151,689.589294 488.351624,705.720947 483.724304,722.284790 
	C479.288300,738.163757 476.462494,754.770813 475.318359,771.224060 
	C473.709381,794.361694 475.526550,817.455383 480.807159,840.309692 
	C487.405182,868.865479 497.942902,895.578918 514.232666,920.757324 
	C521.805298,930.875183 529.377930,940.993042 537.200806,951.727661 
	C543.119873,957.523193 549.039001,963.318787 555.216248,969.731079 
	C566.430786,978.835876 577.645325,987.940613 589.151367,997.687256 
	C596.703003,1003.580566 604.234131,1009.500305 611.810181,1015.362122 
	C632.394958,1031.289551 653.033813,1047.147339 673.585449,1063.117432 
	C695.412659,1080.078857 717.164185,1097.137573 739.254700,1114.766724 
	C740.087585,1115.254395 740.987305,1115.656128 741.742920,1116.243286 
	C748.925659,1121.824219 756.083740,1127.437012 763.249390,1133.039917 
	C772.873840,1140.565308 782.493896,1148.096313 792.124817,1155.613647 
	C803.775024,1164.707031 815.434570,1173.788452 826.359131,1183.012451 
	C816.156616,1188.895264 805.901794,1194.689575 795.762878,1200.680054 
	C777.124329,1211.692383 758.553894,1222.819946 739.330017,1234.221558 
	C729.962952,1239.618530 720.536560,1244.916016 711.247070,1250.443359 
	C703.401855,1255.111328 695.715393,1260.045898 687.248901,1265.007935 
	C675.510742,1271.740356 663.772644,1278.472656 651.366760,1285.342651 
	C643.433167,1289.950195 635.465698,1294.500610 627.575684,1299.181641 
	C619.993591,1303.679932 612.491882,1308.313721 604.237488,1313.016113 
	C590.477478,1320.973022 576.717407,1328.929810 562.242798,1337.005371 
	C547.482910,1346.291260 532.722961,1355.577026 517.350403,1365.181885 
	C498.651215,1379.523560 482.021851,1395.923096 467.336670,1415.207764 
	C460.013000,1427.205322 451.737091,1438.739868 445.619324,1451.323608 
	C438.780701,1465.390015 433.899445,1480.407837 428.015198,1495.795898 
	C419.997803,1522.366089 417.430603,1549.618652 418.059326,1577.231934 
	C418.164398,1581.845825 419.250244,1586.437256 419.990875,1591.934814 
	C420.014313,1594.267090 419.661499,1596.677124 420.123840,1598.918823 
	C422.641052,1611.124634 424.481049,1623.567993 428.239807,1635.393921 
	C432.533325,1648.902100 438.595947,1661.848022 444.005981,1675.770020 
	C446.215363,1679.904541 448.462921,1684.019165 450.627350,1688.177124 
	C459.007721,1704.276001 469.648895,1718.922241 481.936035,1732.068481 
	C492.910797,1743.810425 505.009430,1754.662476 517.553284,1764.735352 
	C532.202759,1776.498901 548.385864,1786.108521 566.302063,1793.748901 
	C579.074036,1798.173462 591.619629,1803.498413 604.678406,1806.782227 
	C619.205811,1810.435547 634.200623,1812.230103 649.919739,1814.983032 
	C667.361206,1814.323730 684.910278,1814.629639 702.210510,1812.702393 
	C716.290894,1811.133911 730.073242,1806.890869 744.750061,1804.016113 
	C772.851929,1795.005249 798.046570,1780.150635 823.751892,1764.760254 
	C835.676941,1757.887573 847.635620,1751.072266 859.514587,1744.121094 
	C866.780334,1739.869263 873.923889,1735.408691 881.841919,1730.991699 
	C899.519836,1720.789307 917.197754,1710.586792 935.473511,1700.103027 
	C937.030640,1699.401978 938.587769,1698.700928 940.752502,1697.986084 
	C941.195618,1697.668213 941.638733,1697.350464 942.008240,1697.016724 
z"/>
<path fill="#91D6DA" opacity="1.000000" stroke="none" 
	d="
M1390.105469,987.945557 
	C1395.818115,991.950745 1401.609619,995.848816 1407.224854,999.986389 
	C1415.694458,1006.227356 1424.490723,1012.129272 1432.332153,1019.093933 
	C1443.498291,1029.011475 1454.456055,1039.277466 1464.505005,1050.304077 
	C1473.010010,1059.636597 1480.681641,1069.871338 1487.695312,1080.391479 
	C1504.040405,1104.907959 1514.702515,1131.827881 1521.195679,1160.642944 
	C1526.416260,1183.809570 1527.936890,1207.154419 1526.816040,1230.644897 
	C1525.975220,1248.263916 1522.809937,1265.690674 1517.985474,1282.738281 
	C1513.241577,1299.500854 1507.026733,1315.712158 1498.877930,1331.095459 
	C1490.613647,1346.696533 1481.400635,1361.775146 1469.476929,1374.901489 
	C1460.322510,1384.979248 1451.168579,1395.176147 1441.019165,1404.200928 
	C1428.837524,1415.032715 1415.523926,1424.508545 1401.162598,1432.486694 
	C1384.948853,1441.493896 1369.093262,1451.143555 1353.029663,1460.423462 
	C1339.203735,1468.410400 1325.261475,1476.196655 1311.448975,1484.206665 
	C1297.612671,1492.230591 1283.918945,1500.500366 1270.077271,1508.514893 
	C1258.090332,1515.455566 1245.945068,1522.122681 1233.940918,1529.034424 
	C1222.326904,1535.721680 1210.823120,1542.599976 1199.234619,1549.332031 
	C1189.611694,1554.922241 1179.927368,1560.406616 1170.286255,1565.965454 
	C1153.933960,1575.394165 1137.602905,1584.860229 1121.246338,1594.281372 
	C1109.224854,1601.205566 1097.151611,1608.040283 1085.146484,1614.992554 
	C1071.058594,1623.151001 1057.047729,1631.442749 1042.951050,1639.585815 
	C1028.841675,1647.736328 1014.627563,1655.706177 1000.532227,1663.880859 
	C984.471802,1673.195190 968.496033,1682.655396 952.465698,1692.021851 
	C951.652710,1692.496826 950.671326,1692.683594 949.263794,1692.728394 
	C950.127502,1691.309082 951.497620,1690.168091 952.863586,1689.022217 
	C963.591980,1680.022217 974.319641,1671.021484 985.341614,1661.866821 
	C993.819580,1651.973022 1002.003357,1642.233276 1010.452515,1632.259033 
	C1017.382263,1621.003540 1024.046753,1609.982178 1030.901123,1598.651855 
	C1041.954346,1577.057739 1048.583008,1554.405151 1052.918457,1530.574463 
	C1053.661133,1526.775146 1054.322388,1523.387451 1055.325562,1519.934082 
	C1056.502563,1519.116211 1057.579224,1518.510742 1058.137695,1517.590698 
	C1079.268433,1482.782471 1100.359619,1447.950195 1121.438110,1413.110352 
	C1140.365723,1381.825439 1159.322388,1350.558105 1178.153442,1319.215332 
	C1183.103516,1310.976440 1187.635498,1302.486328 1192.641846,1294.375000 
	C1198.557617,1307.232544 1204.191162,1319.826660 1209.782593,1332.326904 
	C1212.822510,1330.438477 1216.215332,1327.885986 1219.965942,1326.074463 
	C1240.926514,1315.950806 1261.876343,1305.794678 1283.018433,1296.059082 
	C1304.822632,1286.018433 1326.130981,1275.302002 1342.432617,1257.015991 
	C1355.170166,1242.727661 1360.886108,1226.562744 1354.176147,1207.613159 
	C1346.580444,1186.162964 1330.900269,1171.058594 1313.970947,1157.012451 
	C1307.384888,1151.548218 1300.576538,1146.352051 1294.218262,1140.968018 
	C1297.719360,1136.753540 1301.268799,1132.846313 1303.961426,1128.418213 
	C1328.649170,1087.820435 1353.152588,1047.110474 1377.807983,1006.492798 
	C1381.654053,1000.156738 1385.994019,994.120422 1390.105469,987.945557 
z"/>
<path fill="#41D6E1" opacity="1.000000" stroke="none" 
	d="
M1488.127075,240.954727 
	C1497.582886,249.636169 1507.367798,257.989899 1516.417114,267.076019 
	C1529.921997,280.636047 1540.611206,296.410156 1550.371948,312.815918 
	C1559.303223,327.827484 1565.854980,343.909943 1571.456543,360.672241 
	C1569.845947,362.247040 1568.179199,363.205811 1567.304810,364.645782 
	C1544.071045,402.906494 1520.902344,441.206818 1497.757080,479.521210 
	C1474.783936,517.550537 1451.855591,555.606995 1428.894409,593.643616 
	C1406.276978,631.110657 1383.625977,668.557373 1361.069824,706.061096 
	C1359.998291,707.842590 1359.700928,710.089539 1359.042969,712.119751 
	C1346.847290,719.373901 1334.678589,726.673950 1322.449219,733.870850 
	C1306.570068,743.215515 1290.626221,752.450256 1274.741333,761.785400 
	C1262.345581,769.070129 1250.002563,776.444702 1237.626221,783.762756 
	C1226.347290,790.431946 1215.050537,797.070862 1203.770386,803.737793 
	C1194.871216,808.997498 1185.985229,814.279663 1176.605835,819.840942 
	C1184.606689,826.215149 1192.378052,832.531128 1200.282471,838.675781 
	C1213.136719,848.668274 1226.084717,858.540039 1238.978882,868.481201 
	C1243.600098,872.044067 1248.180176,875.660339 1252.847412,879.928101 
	C1249.779053,886.066406 1246.741821,891.588989 1243.489136,896.981567 
	C1224.613159,928.276184 1205.655640,959.521790 1186.789917,990.822510 
	C1177.792969,1005.749573 1168.937500,1020.761841 1159.717163,1035.616455 
	C1148.681641,1027.129395 1137.977173,1018.721680 1127.176514,1010.439636 
	C1125.680786,1009.292542 1123.709229,1008.766052 1121.864868,1007.626343 
	C1118.606812,1004.792847 1115.450806,1002.273865 1112.275146,999.779663 
	C1098.814087,989.207031 1085.347290,978.641663 1072.227539,967.995056 
	C1073.814331,966.638489 1075.317993,965.526672 1076.252930,964.053711 
	C1080.263672,957.734070 1084.141479,951.328979 1088.005737,944.917664 
	C1110.848145,907.020264 1133.625977,869.083862 1156.515015,831.214661 
	C1191.622681,773.130310 1226.848022,715.117126 1261.937622,657.021973 
	C1289.889526,610.744568 1317.737915,564.404602 1345.520874,518.025635 
	C1346.894409,515.732544 1347.201904,512.800720 1348.326782,510.016327 
	C1351.794312,507.908600 1354.994629,506.031464 1358.076782,503.977386 
	C1365.745850,498.866577 1374.239746,494.598785 1380.825439,488.334595 
	C1397.409790,472.559875 1404.815918,453.008148 1402.106567,429.807526 
	C1400.681274,417.601227 1396.001465,406.948517 1389.481934,397.008362 
	C1391.335815,395.809448 1393.203857,394.900146 1394.253418,393.413147 
	C1396.640747,390.031097 1398.627197,386.365997 1400.774414,382.814697 
	C1428.347290,337.214783 1455.905640,291.606110 1483.541016,246.044144 
	C1484.704346,244.126099 1486.582031,242.641327 1488.127075,240.954727 
z"/>
<path fill="#01B4FF" opacity="1.000000" stroke="none" 
	d="
M513.961060,920.120422 
	C497.942902,895.578918 487.405182,868.865479 480.807159,840.309692 
	C475.526550,817.455383 473.709381,794.361694 475.318359,771.224060 
	C476.462494,754.770813 479.288300,738.163757 483.724304,722.284790 
	C488.351624,705.720947 495.030151,689.589294 502.240234,673.926147 
	C509.995880,657.077881 520.945557,642.084534 532.683105,627.615601 
	C550.883789,605.179504 572.852173,587.303772 597.343811,572.453796 
	C615.627930,561.367615 634.461182,551.190186 652.981567,540.489563 
	C669.122314,531.163940 685.114075,521.579773 701.269409,512.279724 
	C718.128906,502.574280 735.110474,493.081146 752.028625,483.477509 
	C763.439087,477.000366 774.832153,470.492554 786.550659,464.301697 
	C786.028198,466.407532 785.347717,468.306732 784.324463,469.998596 
	C758.937256,511.972382 733.491638,553.910950 708.102478,595.883545 
	C679.184570,643.689697 650.300903,691.516541 621.421021,739.345764 
	C588.243164,794.292847 555.054443,849.233398 521.972290,904.238037 
	C518.924622,909.305298 516.613953,914.815796 513.961060,920.120422 
z"/>
<path fill="#30B9E1" opacity="1.000000" stroke="none" 
	d="
M1166.956787,244.887299 
	C1187.277344,233.453461 1207.268066,221.373505 1228.017700,210.780060 
	C1246.237305,201.478333 1265.909912,195.847244 1286.068237,191.899323 
	C1304.621704,188.265686 1323.291870,187.615311 1342.472900,188.434387 
	C1341.785767,191.098602 1340.880859,193.451447 1339.595093,195.573471 
	C1326.846802,216.613205 1313.978760,237.580490 1301.252686,258.633667 
	C1268.233398,313.258850 1235.241577,367.900696 1202.331543,422.591705 
	C1199.545410,427.221802 1197.451172,432.268311 1194.897827,437.440063 
	C1190.705811,440.144867 1186.665405,442.554718 1182.594727,444.912628 
	C1168.705688,452.957916 1154.812622,460.996399 1140.908325,469.015320 
	C1128.823853,475.984772 1116.708740,482.901459 1104.631226,489.882843 
	C1088.471924,499.223663 1072.335205,508.603455 1056.189941,517.968567 
	C1042.179932,526.095215 1028.205444,534.283875 1014.152222,542.334900 
	C1002.494019,549.013733 990.743896,555.531982 978.905029,561.807251 
	C979.207092,559.638916 979.215149,557.535522 980.136658,555.969727 
	C988.144531,542.362061 996.267151,528.821045 1004.448242,515.316345 
	C1033.641113,467.126892 1062.897217,418.975647 1092.077026,370.778198 
	C1113.165649,335.945282 1134.215088,301.088470 1155.176392,266.178864 
	C1159.349121,259.229370 1163.042480,251.991959 1166.956787,244.887299 
z"/>
<path fill="#29AEE1" opacity="1.000000" stroke="none" 
	d="
M1166.598633,244.942902 
	C1163.042480,251.991959 1159.349121,259.229370 1155.176392,266.178864 
	C1134.215088,301.088470 1113.165649,335.945282 1092.077026,370.778198 
	C1062.897217,418.975647 1033.641113,467.126892 1004.448242,515.316345 
	C996.267151,528.821045 988.144531,542.362061 980.136658,555.969727 
	C979.215149,557.535522 979.207092,559.638916 978.745789,562.118652 
	C967.032593,569.412048 955.375061,576.125916 943.658264,582.734619 
	C932.513123,589.020874 921.273254,595.139404 910.133789,601.435730 
	C893.363647,610.914734 876.626526,620.452515 859.909851,630.025635 
	C846.948608,637.448120 834.081787,645.036011 821.093262,652.409912 
	C812.814209,657.110168 804.389709,661.554016 796.077087,665.750977 
	C797.062805,663.450928 797.852722,661.422485 798.962891,659.587891 
	C820.320435,624.292236 841.756287,589.044006 863.092651,553.735535 
	C889.160706,510.596649 915.130981,467.398682 941.184448,424.250885 
	C954.684143,401.893677 968.315674,379.615784 981.733093,357.209534 
	C982.753784,355.505005 982.538574,353.060425 982.897827,350.959839 
	C995.891296,343.314362 1008.845093,335.600464 1021.888062,328.040497 
	C1038.773682,318.253265 1055.730347,308.588684 1072.656372,298.871429 
	C1088.872070,289.562012 1105.090454,280.257812 1121.302368,270.941895 
	C1132.280151,264.633667 1143.248535,258.309052 1154.781006,252.123413 
	C1155.880493,251.797760 1156.420044,251.340454 1156.959717,250.883148 
	C1160.053345,248.921600 1163.146851,246.960052 1166.598633,244.942902 
z"/>
<path fill="#218DCD" opacity="1.000000" stroke="none" 
	d="
M428.166382,1495.011719 
	C433.899445,1480.407837 438.780701,1465.390015 445.619324,1451.323608 
	C451.737091,1438.739868 460.013000,1427.205322 467.809235,1415.336914 
	C483.457062,1430.413452 498.642883,1445.349976 513.805237,1460.310303 
	C540.119141,1486.273560 566.386963,1512.283569 592.772034,1538.174316 
	C595.449768,1540.801758 598.796448,1542.747437 601.880005,1545.407959 
	C601.260620,1549.473511 600.651428,1553.152100 599.916870,1556.805542 
	C596.996216,1571.331665 600.777710,1584.817627 607.322327,1597.428711 
	C614.843811,1611.922485 626.422607,1622.680054 641.683289,1628.839966 
	C657.114502,1635.068726 672.964294,1636.346191 689.053833,1631.405518 
	C689.552124,1632.586426 689.860840,1633.585205 690.518982,1634.224365 
	C702.673523,1646.028076 714.939087,1657.718018 727.041870,1669.574341 
	C748.768372,1690.858032 770.376404,1712.262451 792.090271,1733.559082 
	C798.726379,1740.067627 805.660828,1746.273926 812.239014,1752.838745 
	C816.086670,1756.678711 819.500732,1760.953125 823.109863,1765.032104 
	C798.046570,1780.150635 772.851929,1795.005249 744.305786,1803.586914 
	C741.234192,1800.264648 738.739258,1797.236938 735.957520,1794.500732 
	C721.372131,1780.153442 706.716553,1765.877441 692.080383,1751.581543 
	C678.039856,1737.867432 663.980164,1724.172607 649.953003,1710.444702 
	C632.951294,1693.805908 615.994019,1677.121582 598.980957,1660.494385 
	C587.444519,1649.219727 575.825867,1638.029175 564.278687,1626.765381 
	C549.037476,1611.897827 533.789673,1597.036743 518.617310,1582.099121 
	C492.768127,1556.649658 467.021362,1531.095947 441.110718,1505.709473 
	C437.126465,1501.806152 432.497253,1498.561157 428.166382,1495.011719 
z"/>
<path fill="#2BB2E1" opacity="1.000000" stroke="none" 
	d="
M738.948730,1114.153809 
	C717.164185,1097.137573 695.412659,1080.078857 673.585449,1063.117432 
	C653.033813,1047.147339 632.394958,1031.289551 611.810181,1015.362122 
	C604.234131,1009.500305 596.703003,1003.580566 589.310791,997.199036 
	C590.266663,995.875854 591.242493,995.150818 591.831604,994.188965 
	C597.649536,984.688110 603.415283,975.155151 609.173157,965.617676 
	C630.142212,930.884094 651.155640,896.177063 672.019409,861.380310 
	C676.002075,854.737915 679.381042,847.733459 683.354492,841.036072 
	C685.089111,842.264771 686.512390,843.347351 687.925598,844.443115 
	C701.195374,854.730713 714.478394,865.001282 727.727539,875.315430 
	C740.089905,884.939209 752.404602,894.624207 764.760742,904.256042 
	C777.986633,914.565918 791.270203,924.802124 804.464539,935.152100 
	C814.068420,942.685730 823.568359,950.351807 832.813354,958.126709 
	C830.991028,960.246704 829.255066,962.068542 827.980774,964.170227 
	C803.154175,1005.114868 778.308716,1046.048584 753.655518,1087.097534 
	C748.375305,1095.889282 743.831665,1105.123413 738.948730,1114.153809 
z"/>
<path fill="#37C5E1" opacity="1.000000" stroke="none" 
	d="
M739.101685,1114.460205 
	C743.831665,1105.123413 748.375305,1095.889282 753.655518,1087.097534 
	C778.308716,1046.048584 803.154175,1005.114868 827.980774,964.170227 
	C829.255066,962.068542 830.991028,960.246704 833.123047,958.265747 
	C839.409668,962.580017 845.120667,966.877991 850.753601,971.275879 
	C862.563477,980.496338 874.320496,989.784302 886.121643,999.015991 
	C895.746460,1006.545166 905.416321,1014.016663 915.043396,1021.542969 
	C927.999329,1031.671631 940.939941,1041.819946 953.874207,1051.976318 
	C960.631775,1057.282593 967.361938,1062.623657 973.804688,1068.118896 
	C972.369202,1069.484863 970.976074,1070.524170 970.137329,1071.901123 
	C961.241028,1086.506470 952.444031,1101.172241 943.598145,1115.808594 
	C924.618347,1147.212280 905.567200,1178.573364 886.710632,1210.050903 
	C884.296509,1214.080933 882.867981,1218.701538 880.661438,1222.936646 
	C867.672302,1213.180664 855.030518,1203.502197 842.323853,1193.909668 
	C837.320557,1190.132690 832.172302,1186.547485 827.090088,1182.875000 
	C815.434570,1173.788452 803.775024,1164.707031 792.124817,1155.613647 
	C782.493896,1148.096313 772.873840,1140.565308 763.249390,1133.039917 
	C756.083740,1127.437012 748.925659,1121.824219 741.742920,1116.243286 
	C740.987305,1115.656128 740.087585,1115.254395 739.101685,1114.460205 
z"/>
<path fill="#37C6E1" opacity="1.000000" stroke="none" 
	d="
M1195.035522,437.121368 
	C1197.451172,432.268311 1199.545410,427.221802 1202.331543,422.591705 
	C1235.241577,367.900696 1268.233398,313.258850 1301.252686,258.633667 
	C1313.978760,237.580490 1326.846802,216.613205 1339.595093,195.573471 
	C1340.880859,193.451447 1341.785767,191.098602 1342.936523,188.509872 
	C1361.065674,187.970276 1378.853760,190.504166 1396.021606,195.728226 
	C1412.176636,200.644058 1428.230469,206.287262 1443.633423,213.167191 
	C1458.842163,219.960266 1473.132690,228.777084 1486.076050,239.499084 
	C1486.556152,239.896790 1487.239136,240.049332 1487.977295,240.635437 
	C1486.582031,242.641327 1484.704346,244.126099 1483.541016,246.044144 
	C1455.905640,291.606110 1428.347290,337.214783 1400.774414,382.814697 
	C1398.627197,386.365997 1396.640747,390.031097 1394.253418,393.413147 
	C1393.203857,394.900146 1391.335815,395.809448 1389.353760,396.684875 
	C1383.288208,388.735016 1376.213135,382.732605 1368.060181,378.040100 
	C1356.030151,371.116028 1343.064941,368.302277 1329.149780,368.909943 
	C1317.969604,369.398132 1307.827881,372.577972 1298.255493,378.189667 
	C1284.580933,386.206238 1270.807983,394.054962 1257.082031,401.984039 
	C1244.758179,409.103241 1232.479980,416.302429 1220.107422,423.335907 
	C1211.817139,428.048859 1203.397339,432.534210 1195.035522,437.121368 
z"/>
<path fill="#249BD6" opacity="1.000000" stroke="none" 
	d="
M428.090790,1495.403809 
	C432.497253,1498.561157 437.126465,1501.806152 441.110718,1505.709473 
	C467.021362,1531.095947 492.768127,1556.649658 518.617310,1582.099121 
	C533.789673,1597.036743 549.037476,1611.897827 564.278687,1626.765381 
	C575.825867,1638.029175 587.444519,1649.219727 598.980957,1660.494385 
	C615.994019,1677.121582 632.951294,1693.805908 649.953003,1710.444702 
	C663.980164,1724.172607 678.039856,1737.867432 692.080383,1751.581543 
	C706.716553,1765.877441 721.372131,1780.153442 735.957520,1794.500732 
	C738.739258,1797.236938 741.234192,1800.264648 743.924683,1803.495850 
	C730.073242,1806.890869 716.290894,1811.133911 702.210510,1812.702393 
	C684.910278,1814.629639 667.361206,1814.323730 649.440063,1814.557373 
	C647.894043,1812.508301 647.076477,1810.631470 645.721680,1809.302246 
	C636.219727,1799.980835 626.575378,1790.805054 617.037048,1781.520386 
	C602.365540,1767.239136 587.745056,1752.905518 573.098206,1738.598877 
	C559.047363,1724.874390 544.987488,1711.158936 530.937134,1697.433716 
	C516.171814,1683.010132 501.389648,1668.603516 486.657745,1654.145752 
	C466.218536,1634.086548 445.844696,1613.960693 425.348297,1593.960205 
	C423.928345,1592.574707 421.723022,1591.994019 419.882874,1591.039062 
	C419.250244,1586.437256 418.164398,1581.845825 418.059326,1577.231934 
	C417.430603,1549.618652 419.997803,1522.366089 428.090790,1495.403809 
z"/>
<path fill="#08B2F9" opacity="1.000000" stroke="none" 
	d="
M514.096924,920.438843 
	C516.613953,914.815796 518.924622,909.305298 521.972290,904.238037 
	C555.054443,849.233398 588.243164,794.292847 621.421021,739.345764 
	C650.300903,691.516541 679.184570,643.689697 708.102478,595.883545 
	C733.491638,553.910950 758.937256,511.972382 784.324463,469.998596 
	C785.347717,468.306732 786.028198,466.407532 786.915039,464.242737 
	C791.758423,460.967590 796.500488,457.959686 801.361816,455.158752 
	C818.296387,445.401581 835.272217,435.716034 852.548950,426.308533 
	C851.638428,429.154572 850.606201,431.812836 849.154724,434.218140 
	C831.449646,463.559052 813.665466,492.852234 795.936890,522.179016 
	C775.884827,555.349487 755.880676,588.549011 735.832947,621.722107 
	C709.503967,665.288879 683.123108,708.824341 656.819336,752.406311 
	C629.913818,796.985352 603.086731,841.611755 576.201416,886.202881 
	C563.146057,907.856018 550.035889,929.476013 536.950562,951.110962 
	C529.377930,940.993042 521.805298,930.875183 514.096924,920.438843 
z"/>
<path fill="#1BADEA" opacity="1.000000" stroke="none" 
	d="
M982.534790,350.987671 
	C982.538574,353.060425 982.753784,355.505005 981.733093,357.209534 
	C968.315674,379.615784 954.684143,401.893677 941.184448,424.250885 
	C915.130981,467.398682 889.160706,510.596649 863.092651,553.735535 
	C841.756287,589.044006 820.320435,624.292236 798.962891,659.587891 
	C797.852722,661.422485 797.062805,663.450928 795.934692,666.069214 
	C788.209045,671.157349 780.682129,675.582092 773.133606,679.969788 
	C759.964111,687.624756 746.756470,695.214417 733.611328,702.910950 
	C721.057861,710.260986 708.563721,717.712341 696.089844,724.755920 
	C700.065430,717.465454 703.836487,710.442749 707.949768,703.626526 
	C734.321899,659.923462 760.783020,616.274048 787.187805,572.590576 
	C815.828857,525.207642 844.483093,477.832672 873.021301,430.387787 
	C877.628540,422.728058 881.661377,414.722809 885.959778,406.877258 
	C891.464661,403.541412 896.920227,400.120789 902.483215,396.884766 
	C924.089050,384.316559 945.720703,371.792542 967.362732,359.286774 
	C972.257751,356.458160 977.233276,353.768890 982.534790,350.987671 
z"/>
<path fill="#2B3A91" opacity="1.000000" stroke="none" 
	d="
M826.724609,1182.943726 
	C832.172302,1186.547485 837.320557,1190.132690 842.323853,1193.909668 
	C855.030518,1203.502197 867.672302,1213.180664 880.848083,1223.210449 
	C903.610535,1241.402100 925.996826,1259.047119 948.050964,1277.097778 
	C956.223755,1283.786865 963.616760,1291.428711 971.192871,1298.970947 
	C970.546082,1299.765137 970.137634,1300.332275 969.587952,1300.668213 
	C948.292358,1313.681763 927.009705,1326.716675 905.667358,1339.653198 
	C893.175049,1347.225342 880.584961,1354.636230 867.976807,1361.761963 
	C865.565552,1358.724854 863.370850,1355.888916 860.842896,1353.390503 
	C839.565308,1332.360840 818.223999,1311.395752 796.908081,1290.404785 
	C790.866394,1284.455322 784.834167,1278.495972 778.816895,1272.521973 
	C765.856323,1259.654541 752.908203,1246.774536 739.955078,1233.899536 
	C758.553894,1222.819946 777.124329,1211.692383 795.762878,1200.680054 
	C805.901794,1194.689575 816.156616,1188.895264 826.724609,1182.943726 
z"/>
<path fill="#53D9E0" opacity="1.000000" stroke="none" 
	d="
M1359.406250,712.061768 
	C1359.700928,710.089539 1359.998291,707.842590 1361.069824,706.061096 
	C1383.625977,668.557373 1406.276978,631.110657 1428.894409,593.643616 
	C1451.855591,555.606995 1474.783936,517.550537 1497.757080,479.521210 
	C1520.902344,441.206818 1544.071045,402.906494 1567.304810,364.645782 
	C1568.179199,363.205811 1569.845947,362.247040 1571.490479,361.046814 
	C1574.892700,374.593414 1577.986572,388.148712 1580.976318,401.726929 
	C1581.738403,405.188232 1582.170532,408.722198 1582.447388,412.641724 
	C1580.926392,414.041901 1579.319458,414.783997 1578.555420,416.039124 
	C1556.596558,452.115387 1534.685425,488.220825 1512.843262,524.367981 
	C1486.787720,567.488342 1460.767212,610.629944 1434.824097,653.818115 
	C1430.648926,660.768494 1426.957275,668.009399 1423.042114,675.116028 
	C1418.145508,678.124390 1413.314087,681.245300 1408.340454,684.120361 
	C1392.178101,693.463318 1375.963867,702.716248 1359.406250,712.061768 
z"/>
<path fill="#1E80C4" opacity="1.000000" stroke="none" 
	d="
M601.832642,1545.009521 
	C598.796448,1542.747437 595.449768,1540.801758 592.772034,1538.174316 
	C566.386963,1512.283569 540.119141,1486.273560 513.805237,1460.310303 
	C498.642883,1445.349976 483.457062,1430.413452 468.117493,1415.167236 
	C482.021851,1395.923096 498.651215,1379.523560 517.667725,1365.410645 
	C519.016357,1367.619019 519.637817,1370.011353 521.146667,1371.510498 
	C529.983887,1380.291138 539.101746,1388.788330 547.989197,1397.519287 
	C571.710022,1420.822510 595.334412,1444.223755 619.056152,1467.525879 
	C627.469299,1475.790283 636.023987,1483.911621 644.589172,1492.019043 
	C645.887756,1493.248291 647.596313,1494.044189 648.956604,1495.353271 
	C648.126953,1496.121948 647.456360,1496.578613 646.784973,1497.033936 
	C638.161072,1502.884766 629.044250,1508.138062 621.040405,1514.740479 
	C611.527649,1522.587280 605.953186,1533.463745 601.832642,1545.009521 
z"/>
<path fill="#12B0F1" opacity="1.000000" stroke="none" 
	d="
M885.594482,406.937286 
	C881.661377,414.722809 877.628540,422.728058 873.021301,430.387787 
	C844.483093,477.832672 815.828857,525.207642 787.187805,572.590576 
	C760.783020,616.274048 734.321899,659.923462 707.949768,703.626526 
	C703.836487,710.442749 700.065430,717.465454 695.946228,725.072266 
	C693.425537,727.180298 691.009399,728.487549 688.780334,730.060059 
	C682.423279,734.544250 674.886658,738.101440 670.101135,743.908203 
	C661.014160,754.934265 655.850159,768.133301 656.047058,782.823975 
	C656.128174,788.874756 656.747864,794.918335 656.818970,801.131714 
	C655.488098,802.574646 654.298035,803.752441 653.457214,805.141602 
	C631.531433,841.366150 609.595032,877.584473 587.765686,913.867188 
	C576.724243,932.219360 565.887451,950.694702 554.958069,969.114380 
	C549.039001,963.318787 543.119873,957.523193 537.075684,951.419312 
	C550.035889,929.476013 563.146057,907.856018 576.201416,886.202881 
	C603.086731,841.611755 629.913818,796.985352 656.819336,752.406311 
	C683.123108,708.824341 709.503967,665.288879 735.832947,621.722107 
	C755.880676,588.549011 775.884827,555.349487 795.936890,522.179016 
	C813.665466,492.852234 831.449646,463.559052 849.154724,434.218140 
	C850.606201,431.812836 851.638428,429.154572 852.913574,426.250977 
	C857.855957,422.876404 862.697021,419.773499 867.658630,416.876984 
	C873.460632,413.489838 879.367676,410.282593 885.594482,406.937286 
z"/>
<path fill="#1E80C4" opacity="1.000000" stroke="none" 
	d="
M823.430908,1764.896240 
	C819.500732,1760.953125 816.086670,1756.678711 812.239014,1752.838745 
	C805.660828,1746.273926 798.726379,1740.067627 792.090271,1733.559082 
	C770.376404,1712.262451 748.768372,1690.858032 727.041870,1669.574341 
	C714.939087,1657.718018 702.673523,1646.028076 690.518982,1634.224365 
	C689.860840,1633.585205 689.552124,1632.586426 689.434753,1631.375000 
	C700.719055,1625.300903 711.693970,1619.690308 722.564514,1613.884521 
	C730.436768,1609.679932 738.170837,1605.216553 746.127441,1601.168213 
	C751.909668,1606.862427 757.565247,1612.221680 763.145630,1617.658325 
	C777.661377,1631.800537 792.177795,1645.942383 806.632568,1660.146729 
	C829.269714,1682.391846 851.828430,1704.716675 874.518066,1726.907715 
	C876.332092,1728.681885 878.903137,1729.681885 881.122314,1731.041748 
	C873.923889,1735.408691 866.780334,1739.869263 859.514587,1744.121094 
	C847.635620,1751.072266 835.676941,1757.887573 823.430908,1764.896240 
z"/>
<path fill="#7DD7DC" opacity="1.000000" stroke="none" 
	d="
M1390.038574,987.600525 
	C1385.994019,994.120422 1381.654053,1000.156738 1377.807983,1006.492798 
	C1353.152588,1047.110474 1328.649170,1087.820435 1303.961426,1128.418213 
	C1301.268799,1132.846313 1297.719360,1136.753540 1293.905396,1140.838013 
	C1284.285889,1133.774170 1275.328247,1126.774658 1266.246094,1119.451538 
	C1259.417603,1113.726440 1252.713745,1108.324707 1246.072266,1102.575195 
	C1251.094971,1093.792847 1255.985352,1085.316406 1261.026855,1076.930786 
	C1285.753784,1035.801880 1310.501465,994.685242 1335.338257,953.622620 
	C1336.453003,951.779541 1338.503052,950.502197 1340.117432,948.961426 
	C1345.523193,952.663513 1351.093262,956.149902 1356.300171,960.113342 
	C1366.635376,967.980225 1376.782227,976.095215 1386.971558,984.152466 
	C1388.090088,985.036926 1388.977173,986.214050 1390.038574,987.600525 
z"/>
<path fill="#1C76BD" opacity="1.000000" stroke="none" 
	d="
M881.482117,1731.016724 
	C878.903137,1729.681885 876.332092,1728.681885 874.518066,1726.907715 
	C851.828430,1704.716675 829.269714,1682.391846 806.632568,1660.146729 
	C792.177795,1645.942383 777.661377,1631.800537 763.145630,1617.658325 
	C757.565247,1612.221680 751.909668,1606.862427 746.297668,1600.869873 
	C764.528137,1589.807617 782.749390,1579.343262 801.131409,1569.177856 
	C814.924316,1582.880981 828.573486,1596.267700 842.184998,1609.692627 
	C868.362671,1635.511353 894.499634,1661.371216 920.702209,1687.164673 
	C925.304626,1691.695190 930.145142,1695.983887 934.875610,1700.384277 
	C917.197754,1710.586792 899.519836,1720.789307 881.482117,1731.016724 
z"/>
<path fill="#1E6CB5" opacity="1.000000" stroke="none" 
	d="
M935.174561,1700.243652 
	C930.145142,1695.983887 925.304626,1691.695190 920.702209,1687.164673 
	C894.499634,1661.371216 868.362671,1635.511353 842.184998,1609.692627 
	C828.573486,1596.267700 814.924316,1582.880981 801.306702,1568.880859 
	C811.417419,1562.490723 821.483765,1556.643799 831.619019,1550.919067 
	C840.027588,1546.169556 848.517456,1541.563843 857.131714,1537.195801 
	C864.274048,1544.581177 871.182068,1551.739746 878.251160,1558.735474 
	C903.811340,1584.029541 929.398499,1609.296753 955.034790,1634.513916 
	C963.690552,1643.028076 972.500000,1651.386963 981.304504,1659.748047 
	C982.338745,1660.730347 983.789673,1661.273926 985.047485,1662.020874 
	C974.319641,1671.021484 963.591980,1680.022217 952.863586,1689.022217 
	C951.497620,1690.168091 950.127502,1691.309082 948.899902,1692.803223 
	C949.040466,1693.154175 949.002686,1693.081177 948.676270,1692.913330 
	C947.585144,1693.528320 946.820496,1694.311279 946.055786,1695.094238 
	C946.055786,1695.094116 946.019409,1695.000122 945.734985,1694.818604 
	C944.298218,1695.454956 943.145996,1696.272705 941.993774,1697.090576 
	C941.993774,1697.090576 942.008240,1697.016724 941.739014,1696.959473 
	C941.028137,1697.268188 940.586548,1697.634155 940.144897,1698.000000 
	C938.587769,1698.700928 937.030640,1699.401978 935.174561,1700.243652 
z"/>
<path fill="#26A5DE" opacity="1.000000" stroke="none" 
	d="
M419.936890,1591.486938 
	C421.723022,1591.994019 423.928345,1592.574707 425.348297,1593.960205 
	C445.844696,1613.960693 466.218536,1634.086548 486.657745,1654.145752 
	C501.389648,1668.603516 516.171814,1683.010132 530.937134,1697.433716 
	C544.987488,1711.158936 559.047363,1724.874390 573.098206,1738.598877 
	C587.745056,1752.905518 602.365540,1767.239136 617.037048,1781.520386 
	C626.575378,1790.805054 636.219727,1799.980835 645.721680,1809.302246 
	C647.076477,1810.631470 647.894043,1812.508301 648.976135,1814.482666 
	C634.200623,1812.230103 619.205811,1810.435547 604.678406,1806.782227 
	C591.619629,1803.498413 579.074036,1798.173462 566.085327,1793.071777 
	C563.872070,1790.056763 562.033081,1787.559326 559.854553,1785.405273 
	C537.132446,1762.937012 514.379456,1740.499756 491.585358,1718.104492 
	C478.056549,1704.812256 464.500854,1691.545532 450.785675,1678.447021 
	C449.016052,1676.756836 446.213745,1676.147949 443.889832,1675.038208 
	C438.595947,1661.848022 432.533325,1648.902100 428.239807,1635.393921 
	C424.481049,1623.567993 422.641052,1611.124634 420.123840,1598.918823 
	C419.661499,1596.677124 420.014313,1594.267090 419.936890,1591.486938 
z"/>
<path fill="#284498" opacity="1.000000" stroke="none" 
	d="
M739.642578,1234.060547 
	C752.908203,1246.774536 765.856323,1259.654541 778.816895,1272.521973 
	C784.834167,1278.495972 790.866394,1284.455322 796.908081,1290.404785 
	C818.223999,1311.395752 839.565308,1332.360840 860.842896,1353.390503 
	C863.370850,1355.888916 865.565552,1358.724854 867.780762,1362.039062 
	C860.946838,1366.769775 854.268433,1370.901245 847.542053,1374.953247 
	C837.041260,1381.279053 826.507996,1387.550903 815.927856,1393.507324 
	C814.690979,1391.389648 813.771790,1389.350830 812.288513,1387.881104 
	C808.398499,1384.026855 804.175049,1380.511108 800.240601,1376.699341 
	C786.860168,1363.735962 773.505615,1350.744995 760.217468,1337.687012 
	C737.072693,1314.942993 713.972107,1292.153687 690.907532,1269.328247 
	C689.666687,1268.100220 688.930054,1266.362793 687.958679,1264.862427 
	C695.715393,1260.045898 703.401855,1255.111328 711.247070,1250.443359 
	C720.536560,1244.916016 729.962952,1239.618530 739.642578,1234.060547 
z"/>
<path fill="#1C76BD" opacity="1.000000" stroke="none" 
	d="
M649.115295,1495.040527 
	C647.596313,1494.044189 645.887756,1493.248291 644.589172,1492.019043 
	C636.023987,1483.911621 627.469299,1475.790283 619.056152,1467.525879 
	C595.334412,1444.223755 571.710022,1420.822510 547.989197,1397.519287 
	C539.101746,1388.788330 529.983887,1380.291138 521.146667,1371.510498 
	C519.637817,1370.011353 519.016357,1367.619019 517.973999,1365.250977 
	C532.722961,1355.577026 547.482910,1346.291260 562.764404,1337.243652 
	C576.788086,1350.751953 590.308472,1364.003418 603.788147,1377.296143 
	C629.820923,1402.967896 655.825012,1428.668823 681.855713,1454.342529 
	C686.212280,1458.639526 690.643799,1462.860352 694.886353,1467.423584 
	C685.989258,1473.101074 677.285217,1478.535645 668.490662,1483.819580 
	C662.094055,1487.662964 655.578064,1491.307373 649.115295,1495.040527 
z"/>
<path fill="#225EAB" opacity="1.000000" stroke="none" 
	d="
M604.954895,1312.888062 
	C612.491882,1308.313721 619.993591,1303.679932 627.575684,1299.181641 
	C635.465698,1294.500610 643.433167,1289.950195 651.763123,1285.598877 
	C654.394897,1288.025513 656.635193,1290.191040 658.864990,1292.367432 
	C672.913391,1306.079590 686.988831,1319.764160 700.999329,1333.514893 
	C721.902527,1354.030518 742.792236,1374.560059 763.615967,1395.156250 
	C769.880188,1401.352051 775.906006,1407.788696 781.881958,1414.415527 
	C772.156189,1420.644653 762.635071,1426.649048 753.005005,1432.472900 
	C747.441406,1435.837402 741.701904,1438.911133 735.877869,1441.818115 
	C723.853455,1429.890625 711.966797,1418.287231 700.137268,1406.625732 
	C674.206848,1381.063599 648.306946,1355.470459 622.385498,1329.899048 
	C621.441711,1328.967896 620.359253,1328.177368 619.415771,1327.246094 
	C614.582031,1322.473755 609.772766,1317.676514 604.954895,1312.888062 
z"/>
<path fill="#1E6CB5" opacity="1.000000" stroke="none" 
	d="
M604.596191,1312.952148 
	C609.772766,1317.676514 614.582031,1322.473755 619.415771,1327.246094 
	C620.359253,1328.177368 621.441711,1328.967896 622.385498,1329.899048 
	C648.306946,1355.470459 674.206848,1381.063599 700.137268,1406.625732 
	C711.966797,1418.287231 723.853455,1429.890625 735.719849,1442.122314 
	C728.488281,1447.149902 721.278503,1451.621460 714.005188,1455.987183 
	C707.721191,1459.759277 701.364990,1463.411133 695.040649,1467.116211 
	C690.643799,1462.860352 686.212280,1458.639526 681.855713,1454.342529 
	C655.825012,1428.668823 629.820923,1402.967896 603.788147,1377.296143 
	C590.308472,1364.003418 576.788086,1350.751953 563.121704,1337.184326 
	C576.717407,1328.929810 590.477478,1320.973022 604.596191,1312.952148 
z"/>
<path fill="#1BADEA" opacity="1.000000" stroke="none" 
	d="
M555.087158,969.422729 
	C565.887451,950.694702 576.724243,932.219360 587.765686,913.867188 
	C609.595032,877.584473 631.531433,841.366150 653.457214,805.141602 
	C654.298035,803.752441 655.488098,802.574646 657.151611,801.325439 
	C658.062927,802.617432 658.250793,803.908752 658.626282,805.143066 
	C663.026733,819.607788 671.239319,831.478638 683.038452,840.896057 
	C679.381042,847.733459 676.002075,854.737915 672.019409,861.380310 
	C651.155640,896.177063 630.142212,930.884094 609.173157,965.617676 
	C603.415283,975.155151 597.649536,984.688110 591.831604,994.188965 
	C591.242493,995.150818 590.266663,995.875854 589.165039,996.878113 
	C577.645325,987.940613 566.430786,978.835876 555.087158,969.422729 
z"/>
<path fill="#2552A2" opacity="1.000000" stroke="none" 
	d="
M782.041016,1414.115112 
	C775.906006,1407.788696 769.880188,1401.352051 763.615967,1395.156250 
	C742.792236,1374.560059 721.902527,1354.030518 700.999329,1333.514893 
	C686.988831,1319.764160 672.913391,1306.079590 658.864990,1292.367432 
	C656.635193,1290.191040 654.394897,1288.025513 652.096985,1285.530029 
	C663.772644,1278.472656 675.510742,1271.740356 687.603760,1264.935181 
	C688.930054,1266.362793 689.666687,1268.100220 690.907532,1269.328247 
	C713.972107,1292.153687 737.072693,1314.942993 760.217468,1337.687012 
	C773.505615,1350.744995 786.860168,1363.735962 800.240601,1376.699341 
	C804.175049,1380.511108 808.398499,1384.026855 812.288513,1387.881104 
	C813.771790,1389.350830 814.690979,1391.389648 815.618530,1393.670532 
	C810.536743,1397.282349 805.786011,1400.531372 800.849548,1403.468262 
	C794.659729,1407.151123 788.317444,1410.577759 782.041016,1414.115112 
z"/>
<path fill="#59D9DF" opacity="1.000000" stroke="none" 
	d="
M1423.405762,675.060425 
	C1426.957275,668.009399 1430.648926,660.768494 1434.824097,653.818115 
	C1460.767212,610.629944 1486.787720,567.488342 1512.843262,524.367981 
	C1534.685425,488.220825 1556.596558,452.115387 1578.555420,416.039124 
	C1579.319458,414.783997 1580.926392,414.041901 1582.496826,413.053711 
	C1583.236084,423.196930 1583.679688,433.345490 1583.947632,443.498688 
	C1583.997192,445.375549 1583.337524,447.271118 1582.589111,449.650940 
	C1580.870605,451.576965 1579.295898,452.844238 1578.307617,454.468445 
	C1566.118530,474.499756 1554.021851,494.587189 1541.888428,514.652344 
	C1514.781616,559.478638 1487.652710,604.291443 1460.634644,649.171143 
	C1459.870483,650.440430 1460.260742,652.404602 1460.112671,654.044678 
	C1447.998291,661.031433 1435.883911,668.018188 1423.405762,675.060425 
z"/>
<path fill="#63D8DE" opacity="1.000000" stroke="none" 
	d="
M1460.435181,653.904907 
	C1460.260742,652.404602 1459.870483,650.440430 1460.634644,649.171143 
	C1487.652710,604.291443 1514.781616,559.478638 1541.888428,514.652344 
	C1554.021851,494.587189 1566.118530,474.499756 1578.307617,454.468445 
	C1579.295898,452.844238 1580.870605,451.576965 1582.503418,450.071716 
	C1581.488892,462.828583 1581.009399,475.821808 1578.612549,488.451141 
	C1574.045044,512.517883 1565.647217,535.397827 1553.961548,556.980408 
	C1545.447021,572.706055 1535.716919,587.637695 1523.588379,600.857727 
	C1516.641846,608.429382 1510.077515,616.555115 1502.173218,622.998840 
	C1488.857178,633.854309 1474.612061,643.570068 1460.435181,653.904907 
z"/>
<path fill="#59D9DF" opacity="1.000000" stroke="none" 
	d="
M1275.039551,896.884583 
	C1282.600220,902.735413 1290.160889,908.586243 1297.679077,915.043457 
	C1279.554688,945.502441 1261.487427,975.363953 1243.385986,1005.204651 
	C1230.283813,1026.803955 1217.136475,1048.375854 1203.690796,1069.849976 
	C1196.246582,1064.167480 1189.121094,1058.594971 1182.060303,1052.675781 
	C1184.441895,1048.487793 1186.758911,1044.646362 1189.076050,1040.805054 
	C1213.140991,1000.911072 1237.239502,961.037170 1261.242676,921.106018 
	C1266.028564,913.144531 1270.450073,904.964111 1275.039551,896.884583 
z"/>
<path fill="#53D9E0" opacity="1.000000" stroke="none" 
	d="
M1274.892334,896.575684 
	C1270.450073,904.964111 1266.028564,913.144531 1261.242676,921.106018 
	C1237.239502,961.037170 1213.140991,1000.911072 1189.076050,1040.805054 
	C1186.758911,1044.646362 1184.441895,1048.487793 1181.771240,1052.506470 
	C1174.284302,1047.034424 1167.151001,1041.384888 1160.017822,1035.735474 
	C1168.937500,1020.761841 1177.792969,1005.749573 1186.789917,990.822510 
	C1205.655640,959.521790 1224.613159,928.276184 1243.489136,896.981567 
	C1246.741821,891.588989 1249.779053,886.066406 1252.980957,880.243225 
	C1259.102783,884.494446 1265.156372,889.110840 1271.219727,893.714294 
	C1272.375000,894.591370 1273.568848,895.417358 1274.892334,896.575684 
z"/>
<path fill="#6ED8DD" opacity="1.000000" stroke="none" 
	d="
M1340.044556,948.616211 
	C1338.503052,950.502197 1336.453003,951.779541 1335.338257,953.622620 
	C1310.501465,994.685242 1285.753784,1035.801880 1261.026855,1076.930786 
	C1255.985352,1085.316406 1251.094971,1093.792847 1245.747070,1102.492676 
	C1238.540161,1097.265869 1231.720947,1091.773804 1224.970947,1085.912598 
	C1225.783081,1084.070923 1226.433716,1082.542480 1227.282593,1081.133667 
	C1246.125488,1049.859131 1264.975342,1018.588867 1283.856812,987.337646 
	C1294.155640,970.291748 1304.462524,953.250000 1314.924438,936.304443 
	C1316.019897,934.529968 1318.193115,933.420837 1319.866211,932.003052 
	C1319.866211,932.003052 1320.011841,931.991760 1320.139160,932.235962 
	C1320.455811,932.693481 1320.678223,932.863403 1320.933838,932.989807 
	C1327.279785,938.083496 1333.625732,943.177246 1340.044556,948.616211 
z"/>
<path fill="#63D8DE" opacity="1.000000" stroke="none" 
	d="
M1319.734741,931.695679 
	C1318.193115,933.420837 1316.019897,934.529968 1314.924438,936.304443 
	C1304.462524,953.250000 1294.155640,970.291748 1283.856812,987.337646 
	C1264.975342,1018.588867 1246.125488,1049.859131 1227.282593,1081.133667 
	C1226.433716,1082.542480 1225.783081,1084.070923 1224.651123,1085.780273 
	C1217.511353,1080.664551 1210.760376,1075.312256 1204.009399,1069.959961 
	C1217.136475,1048.375854 1230.283813,1026.803955 1243.385986,1005.204651 
	C1261.487427,975.363953 1279.554688,945.502441 1297.811035,915.362976 
	C1305.191406,920.513550 1312.397339,925.950989 1319.734741,931.695679 
z"/>
<path fill="#29AEE1" opacity="1.000000" stroke="none" 
	d="
M443.947906,1675.404053 
	C446.213745,1676.147949 449.016052,1676.756836 450.785675,1678.447021 
	C464.500854,1691.545532 478.056549,1704.812256 491.585358,1718.104492 
	C514.379456,1740.499756 537.132446,1762.937012 559.854553,1785.405273 
	C562.033081,1787.559326 563.872070,1790.056763 565.915100,1792.752930 
	C548.385864,1786.108521 532.202759,1776.498901 517.553284,1764.735352 
	C505.009430,1754.662476 492.910797,1743.810425 481.936035,1732.068481 
	C469.648895,1718.922241 459.007721,1704.276001 450.627350,1688.177124 
	C448.462921,1684.019165 446.215363,1679.904541 443.947906,1675.404053 
z"/>
<path fill="#91D6DA" opacity="1.000000" stroke="none" 
	d="
M942.344543,1697.045776 
	C943.145996,1696.272705 944.298218,1695.454956 945.763550,1694.860352 
	C944.949524,1695.722778 943.822449,1696.361938 942.344543,1697.045776 
z"/>
<path fill="#30B9E1" opacity="1.000000" stroke="none" 
	d="
M1156.658203,250.939392 
	C1156.420044,251.340454 1155.880493,251.797760 1155.145752,252.074036 
	C1155.419312,251.593872 1155.887939,251.294754 1156.658203,250.939392 
z"/>
<path fill="#91D6DA" opacity="1.000000" stroke="none" 
	d="
M946.354614,1694.973877 
	C946.820496,1694.311279 947.585144,1693.528320 948.714600,1692.898438 
	C948.270752,1693.652344 947.462097,1694.252930 946.354614,1694.973877 
z"/>
<path fill="#91D6DA" opacity="1.000000" stroke="none" 
	d="
M940.448730,1697.993042 
	C940.586548,1697.634155 941.028137,1697.268188 941.775757,1696.967529 
	C941.638733,1697.350464 941.195618,1697.668213 940.448730,1697.993042 
z"/>
<path fill="#63D8DE" opacity="1.000000" stroke="none" 
	d="
M1320.878540,932.760742 
	C1320.678223,932.863403 1320.455811,932.693481 1320.145386,932.308716 
	C1320.380005,932.087708 1320.646362,932.219177 1320.878540,932.760742 
z"/>
<path fill="#000000" opacity="1.000000" stroke="none" 
	d="
M1266.370605,1119.775024 
	C1275.328247,1126.774658 1284.285889,1133.774170 1293.556396,1140.903809 
	C1300.576538,1146.352051 1307.384888,1151.548218 1313.970947,1157.012451 
	C1330.900269,1171.058594 1346.580444,1186.162964 1354.176147,1207.613159 
	C1360.886108,1226.562744 1355.170166,1242.727661 1342.432617,1257.015991 
	C1326.130981,1275.302002 1304.822632,1286.018433 1283.018433,1296.059082 
	C1261.876343,1305.794678 1240.926514,1315.950806 1219.965942,1326.074463 
	C1216.215332,1327.885986 1212.822510,1330.438477 1209.782593,1332.326904 
	C1204.191162,1319.826660 1198.557617,1307.232544 1192.487061,1294.076660 
	C1188.415161,1286.519653 1185.054932,1279.363647 1181.074585,1272.571045 
	C1176.365723,1264.535034 1171.121582,1256.812866 1166.057983,1248.595703 
	C1165.337036,1247.147217 1164.750244,1245.995483 1163.985352,1244.977539 
	C1157.689941,1236.599365 1151.361328,1228.246094 1144.910645,1219.568604 
	C1140.198608,1213.784790 1135.618896,1208.317505 1131.187744,1202.548340 
	C1134.576416,1200.328003 1137.843018,1198.452881 1141.052002,1196.484009 
	C1160.247925,1184.706665 1179.413330,1172.879639 1198.621826,1161.123047 
	C1221.187256,1147.311890 1243.786255,1133.555298 1266.370605,1119.775024 
z"/>
<path fill="#7DD7DC" opacity="1.000000" stroke="none" 
	d="
M1166.109497,1248.954590 
	C1171.121582,1256.812866 1176.365723,1264.535034 1181.074585,1272.571045 
	C1185.054932,1279.363647 1188.415161,1286.519653 1192.204590,1293.813232 
	C1187.635498,1302.486328 1183.103516,1310.976440 1178.153442,1319.215332 
	C1159.322388,1350.558105 1140.365723,1381.825439 1121.438110,1413.110352 
	C1100.359619,1447.950195 1079.268433,1482.782471 1058.137695,1517.590698 
	C1057.579224,1518.510742 1056.502563,1519.116211 1055.279053,1519.478638 
	C1055.518066,1509.509277 1057.083374,1499.879639 1056.573608,1490.360962 
	C1055.584473,1471.894043 1053.429077,1453.489746 1052.116943,1434.990967 
	C1053.423218,1434.062256 1054.627441,1433.361816 1055.275513,1432.316650 
	C1060.877686,1423.281372 1066.412598,1414.203857 1071.906128,1405.101929 
	C1103.316650,1353.058472 1134.710205,1301.004883 1166.109497,1248.954590 
z"/>
<path fill="#284498" opacity="1.000000" stroke="none" 
	d="
M1052.837158,1530.986084 
	C1048.583008,1554.405151 1041.954346,1577.057739 1030.575317,1598.585938 
	C1028.527588,1597.869507 1026.781372,1597.135376 1025.497925,1595.914673 
	C1015.985046,1586.865723 1006.500244,1577.785278 997.127197,1568.591797 
	C975.399048,1547.279297 953.743103,1525.892944 932.038147,1504.556763 
	C930.979309,1503.515747 929.609741,1502.780151 928.603882,1501.698730 
	C927.288513,1500.284424 926.191467,1498.666870 925.312744,1496.971680 
	C945.081848,1485.592041 964.538818,1474.377441 984.014404,1463.515015 
	C984.979126,1465.369263 985.692871,1467.105103 986.919678,1468.325073 
	C989.499023,1470.889771 992.464233,1473.064575 995.066895,1475.608398 
	C1013.001648,1493.136597 1030.872070,1510.730591 1048.809814,1528.255859 
	C1049.951782,1529.371094 1051.485596,1530.085327 1052.837158,1530.986084 
z"/>
<path fill="#225EAB" opacity="1.000000" stroke="none" 
	d="
M985.341614,1661.866821 
	C983.789673,1661.273926 982.338745,1660.730347 981.304504,1659.748047 
	C972.500000,1651.386963 963.690552,1643.028076 955.034790,1634.513916 
	C929.398499,1609.296753 903.811340,1584.029541 878.251160,1558.735474 
	C871.182068,1551.739746 864.274048,1544.581177 857.281006,1536.887207 
	C869.170349,1529.476685 881.070740,1522.676270 893.032227,1516.222168 
	C894.185303,1518.002319 895.117126,1519.600708 896.395203,1520.843018 
	C904.611267,1528.829346 912.987976,1536.651611 921.154602,1544.687622 
	C947.338928,1570.453735 973.453735,1596.290527 999.598450,1622.097046 
	C1003.118774,1625.571777 1006.657166,1629.028320 1010.187134,1632.493408 
	C1002.003357,1642.233276 993.819580,1651.973022 985.341614,1661.866821 
z"/>
<path fill="#2552A2" opacity="1.000000" stroke="none" 
	d="
M1010.452515,1632.259033 
	C1006.657166,1629.028320 1003.118774,1625.571777 999.598450,1622.097046 
	C973.453735,1596.290527 947.338928,1570.453735 921.154602,1544.687622 
	C912.987976,1536.651611 904.611267,1528.829346 896.395203,1520.843018 
	C895.117126,1519.600708 894.185303,1518.002319 893.214233,1515.931885 
	C903.890198,1509.242554 914.445374,1503.189697 925.000549,1497.136841 
	C926.191467,1498.666870 927.288513,1500.284424 928.603882,1501.698730 
	C929.609741,1502.780151 930.979309,1503.515747 932.038147,1504.556763 
	C953.743103,1525.892944 975.399048,1547.279297 997.127197,1568.591797 
	C1006.500244,1577.785278 1015.985046,1586.865723 1025.497925,1595.914673 
	C1026.781372,1597.135376 1028.527588,1597.869507 1030.385376,1598.894775 
	C1024.046753,1609.982178 1017.382263,1621.003540 1010.452515,1632.259033 
z"/>
<path fill="#2B3A91" opacity="1.000000" stroke="none" 
	d="
M1052.918457,1530.574463 
	C1051.485596,1530.085327 1049.951782,1529.371094 1048.809814,1528.255859 
	C1030.872070,1510.730591 1013.001648,1493.136597 995.066895,1475.608398 
	C992.464233,1473.064575 989.499023,1470.889771 986.919678,1468.325073 
	C985.692871,1467.105103 984.979126,1465.369263 984.325195,1463.347656 
	C994.354065,1457.119751 1004.044983,1451.331299 1013.839294,1445.723389 
	C1025.486328,1439.054810 1037.222412,1432.541382 1049.168213,1426.251709 
	C1050.196777,1429.381592 1050.976929,1432.220581 1051.756958,1435.059448 
	C1053.429077,1453.489746 1055.584473,1471.894043 1056.573608,1490.360962 
	C1057.083374,1499.879639 1055.518066,1509.509277 1054.937012,1519.544434 
	C1054.322388,1523.387451 1053.661133,1526.775146 1052.918457,1530.574463 
z"/>
<path fill="#000000" opacity="1.000000" stroke="none" 
	d="
M683.354492,841.036072 
	C671.239319,831.478638 663.026733,819.607788 658.626282,805.143066 
	C658.250793,803.908752 658.062927,802.617432 657.455261,801.158875 
	C656.747864,794.918335 656.128174,788.874756 656.047058,782.823975 
	C655.850159,768.133301 661.014160,754.934265 670.101135,743.908203 
	C674.886658,738.101440 682.423279,734.544250 688.780334,730.060059 
	C691.009399,728.487549 693.425537,727.180298 695.899902,725.435547 
	C708.563721,717.712341 721.057861,710.260986 733.611328,702.910950 
	C746.756470,695.214417 759.964111,687.624756 773.133606,679.969788 
	C780.682129,675.582092 788.209045,671.157349 795.888062,666.431030 
	C804.389709,661.554016 812.814209,657.110168 821.093262,652.409912 
	C834.081787,645.036011 846.948608,637.448120 859.909851,630.025635 
	C876.626526,620.452515 893.363647,610.914734 910.133789,601.435730 
	C921.273254,595.139404 932.513123,589.020874 943.658264,582.734619 
	C955.375061,576.125916 967.032593,569.412048 978.875244,562.432739 
	C990.743896,555.531982 1002.494019,549.013733 1014.152222,542.334900 
	C1028.205444,534.283875 1042.179932,526.095215 1056.189941,517.968567 
	C1072.335205,508.603455 1088.471924,499.223663 1104.631226,489.882843 
	C1116.708740,482.901459 1128.823853,475.984772 1140.908325,469.015320 
	C1154.812622,460.996399 1168.705688,452.957916 1182.594727,444.912628 
	C1186.665405,442.554718 1190.705811,440.144867 1194.897827,437.440063 
	C1203.397339,432.534210 1211.817139,428.048859 1220.107422,423.335907 
	C1232.479980,416.302429 1244.758179,409.103241 1257.082031,401.984039 
	C1270.807983,394.054962 1284.580933,386.206238 1298.255493,378.189667 
	C1307.827881,372.577972 1317.969604,369.398132 1329.149780,368.909943 
	C1343.064941,368.302277 1356.030151,371.116028 1368.060181,378.040100 
	C1376.213135,382.732605 1383.288208,388.735016 1388.996216,396.712158 
	C1396.001465,406.948517 1400.681274,417.601227 1402.106567,429.807526 
	C1404.815918,453.008148 1397.409790,472.559875 1380.825439,488.334595 
	C1374.239746,494.598785 1365.745850,498.866577 1358.076782,503.977386 
	C1354.994629,506.031464 1351.794312,507.908600 1347.975830,510.040649 
	C1284.854248,547.105286 1222.404785,583.995605 1159.628174,621.030945 
	C1140.237061,632.257935 1121.130737,643.268311 1102.119751,654.440796 
	C1080.874146,666.926575 1059.743530,679.607605 1038.510620,692.114868 
	C1016.837585,704.881287 995.069336,717.485962 973.401550,730.260986 
	C951.611328,743.108154 929.833496,755.978516 908.176758,769.048401 
	C900.639404,773.597168 892.486450,777.062134 886.722168,784.528625 
	C878.686584,794.937195 878.745850,815.916199 889.049377,824.457947 
	C900.833984,834.227661 912.768677,843.823181 924.816772,853.266541 
	C946.099670,869.948120 967.517883,886.456909 989.025330,903.355408 
	C1016.741638,925.139709 1044.312134,946.606689 1071.882568,968.073608 
	C1085.347290,978.641663 1098.814087,989.207031 1112.275146,999.779663 
	C1115.450806,1002.273865 1118.606812,1004.792847 1121.550903,1007.769958 
	C1079.190186,1033.210327 1037.050537,1058.181030 994.604004,1082.995361 
	C987.566284,1077.875488 980.835388,1072.912231 974.104431,1067.949097 
	C967.361938,1062.623657 960.631775,1057.282593 953.874207,1051.976318 
	C940.939941,1041.819946 927.999329,1031.671631 915.043396,1021.542969 
	C905.416321,1014.016663 895.746460,1006.545166 886.121643,999.015991 
	C874.320496,989.784302 862.563477,980.496338 850.753601,971.275879 
	C845.120667,966.877991 839.409668,962.580017 833.424316,958.097839 
	C823.568359,950.351807 814.068420,942.685730 804.464539,935.152100 
	C791.270203,924.802124 777.986633,914.565918 764.760742,904.256042 
	C752.404602,894.624207 740.089905,884.939209 727.727539,875.315430 
	C714.478394,865.001282 701.195374,854.730713 687.925598,844.443115 
	C686.512390,843.347351 685.089111,842.264771 683.354492,841.036072 
z"/>
<path fill="#3BCCE1" opacity="1.000000" stroke="none" 
	d="
M1072.227539,967.995117 
	C1044.312134,946.606689 1016.741638,925.139709 989.374146,903.289490 
	C991.339111,901.002502 993.483643,899.331665 994.806091,897.160156 
	C1015.820984,862.652527 1036.761230,828.099182 1057.657227,793.519348 
	C1090.764404,738.731689 1123.844238,683.927429 1156.847290,629.077087 
	C1158.328857,626.614807 1158.939087,623.628235 1159.955200,620.885925 
	C1222.404785,583.995605 1284.854248,547.105286 1347.654785,510.190674 
	C1347.201904,512.800720 1346.894409,515.732544 1345.520874,518.025635 
	C1317.737915,564.404602 1289.889526,610.744568 1261.937622,657.021973 
	C1226.848022,715.117126 1191.622681,773.130310 1156.515015,831.214661 
	C1133.625977,869.083862 1110.848145,907.020264 1088.005737,944.917664 
	C1084.141479,951.328979 1080.263672,957.734070 1076.252930,964.053711 
	C1075.317993,965.526672 1073.814331,966.638489 1072.227539,967.995117 
z"/>
<path fill="#2B3A91" opacity="1.000000" stroke="none" 
	d="
M994.910828,1083.151855 
	C1037.050537,1058.181030 1079.190186,1033.210327 1121.643921,1008.095886 
	C1123.709229,1008.766052 1125.680786,1009.292542 1127.176514,1010.439636 
	C1137.977173,1018.721680 1148.681641,1027.129395 1159.717163,1035.616455 
	C1167.151001,1041.384888 1174.284302,1047.034424 1181.706543,1052.853149 
	C1189.121094,1058.594971 1196.246582,1064.167480 1203.690796,1069.849976 
	C1210.760376,1075.312256 1217.511353,1080.664551 1224.582031,1086.149292 
	C1231.720947,1091.773804 1238.540161,1097.265869 1245.684570,1102.840576 
	C1252.713745,1108.324707 1259.417603,1113.726440 1266.246094,1119.451538 
	C1243.786255,1133.555298 1221.187256,1147.311890 1198.621826,1161.123047 
	C1179.413330,1172.879639 1160.247925,1184.706665 1141.052002,1196.484009 
	C1137.843018,1198.452881 1134.576416,1200.328003 1130.867310,1202.503540 
	C1128.988037,1201.383789 1127.577881,1200.007080 1126.022217,1198.343506 
	C1119.584473,1191.704468 1113.292114,1185.352417 1106.853027,1178.701538 
	C1098.188110,1170.505371 1089.670166,1162.607910 1080.985352,1154.428711 
	C1059.385742,1136.305176 1037.973755,1118.438599 1016.508667,1100.635986 
	C1009.379578,1094.723267 1002.114014,1088.975220 994.910828,1083.151855 
z"/>
<path fill="#000000" opacity="1.000000" stroke="none" 
	d="
M1048.919800,1425.960693 
	C1037.222412,1432.541382 1025.486328,1439.054810 1013.839294,1445.723389 
	C1004.044983,1451.331299 994.354065,1457.119751 984.306580,1462.995605 
	C964.538818,1474.377441 945.081848,1485.592041 925.312744,1496.971680 
	C914.445374,1503.189697 903.890198,1509.242554 893.153076,1515.585693 
	C881.070740,1522.676270 869.170349,1529.476685 857.120605,1536.585693 
	C848.517456,1541.563843 840.027588,1546.169556 831.619019,1550.919067 
	C821.483765,1556.643799 811.417419,1562.490723 801.145935,1568.581787 
	C782.749390,1579.343262 764.528137,1589.807617 746.136719,1600.570312 
	C738.170837,1605.216553 730.436768,1609.679932 722.564514,1613.884521 
	C711.693970,1619.690308 700.719055,1625.300903 689.407959,1631.025513 
	C672.964294,1636.346191 657.114502,1635.068726 641.683289,1628.839966 
	C626.422607,1622.680054 614.843811,1611.922485 607.322327,1597.428711 
	C600.777710,1584.817627 596.996216,1571.331665 599.916870,1556.805542 
	C600.651428,1553.152100 601.260620,1549.473511 601.880005,1545.407959 
	C605.953186,1533.463745 611.527649,1522.587280 621.040405,1514.740479 
	C629.044250,1508.138062 638.161072,1502.884766 646.784973,1497.033936 
	C647.456360,1496.578613 648.126953,1496.121948 648.956604,1495.353271 
	C655.578064,1491.307373 662.094055,1487.662964 668.490662,1483.819580 
	C677.285217,1478.535645 685.989258,1473.101074 694.886353,1467.423584 
	C701.364990,1463.411133 707.721191,1459.759277 714.005188,1455.987183 
	C721.278503,1451.621460 728.488281,1447.149902 735.883545,1442.419922 
	C741.701904,1438.911133 747.441406,1435.837402 753.005005,1432.472900 
	C762.635071,1426.649048 772.156189,1420.644653 781.881958,1414.415527 
	C788.317444,1410.577759 794.659729,1407.151123 800.849548,1403.468262 
	C805.786011,1400.531372 810.536743,1397.282349 815.679199,1394.008789 
	C826.507996,1387.550903 837.041260,1381.279053 847.542053,1374.953247 
	C854.268433,1370.901245 860.946838,1366.769775 867.842834,1362.396729 
	C880.584961,1354.636230 893.175049,1347.225342 905.667358,1339.653198 
	C927.009705,1326.716675 948.292358,1313.681763 969.587952,1300.668213 
	C970.137634,1300.332275 970.546082,1299.765137 971.417786,1299.200684 
	C975.808594,1303.089966 979.802063,1307.084595 983.941528,1311.386719 
	C992.028137,1320.483154 999.968811,1329.272217 1008.047119,1338.379395 
	C1013.511597,1346.798462 1018.838501,1354.899536 1024.194336,1363.353027 
	C1026.472656,1367.737793 1028.888672,1371.687500 1030.931030,1375.821899 
	C1033.729858,1381.487671 1036.244995,1387.293579 1038.935059,1393.432251 
	C1042.298828,1404.536987 1045.609253,1415.248779 1048.919800,1425.960693 
z"/>
<path fill="#41D6E1" opacity="1.000000" stroke="none" 
	d="
M983.795471,1311.079224 
	C979.802063,1307.084595 975.808594,1303.089966 971.590332,1298.865723 
	C963.616760,1291.428711 956.223755,1283.786865 948.050964,1277.097778 
	C925.996826,1259.047119 903.610535,1241.402100 881.169434,1223.322388 
	C882.867981,1218.701538 884.296509,1214.080933 886.710632,1210.050903 
	C905.567200,1178.573364 924.618347,1147.212280 943.598145,1115.808594 
	C952.444031,1101.172241 961.241028,1086.506470 970.137329,1071.901123 
	C970.976074,1070.524170 972.369202,1069.484863 973.804688,1068.118896 
	C980.835388,1072.912231 987.566284,1077.875488 994.604004,1082.995361 
	C1002.114014,1088.975220 1009.379578,1094.723267 1016.508667,1100.635986 
	C1037.973755,1118.438599 1059.385742,1136.305176 1080.812622,1154.744263 
	C1073.559448,1166.877441 1066.147217,1178.313477 1059.094971,1189.967285 
	C1036.201416,1227.799316 1013.476013,1265.733276 990.553589,1303.547607 
	C988.835388,1306.382080 986.072632,1308.583496 983.795471,1311.079224 
z"/>
<path fill="#6ED8DD" opacity="1.000000" stroke="none" 
	d="
M1049.168213,1426.251709 
	C1045.609253,1415.248779 1042.298828,1404.536987 1039.271851,1393.342896 
	C1040.316040,1392.023193 1041.236694,1391.282959 1041.813843,1390.333862 
	C1056.053223,1366.924438 1070.272949,1343.503052 1084.461792,1320.062744 
	C1104.669800,1286.678955 1124.850464,1253.278564 1145.042847,1219.885254 
	C1151.361328,1228.246094 1157.689941,1236.599365 1163.985352,1244.977539 
	C1164.750244,1245.995483 1165.337036,1247.147217 1166.057983,1248.595703 
	C1134.710205,1301.004883 1103.316650,1353.058472 1071.906128,1405.101929 
	C1066.412598,1414.203857 1060.877686,1423.281372 1055.275513,1432.316650 
	C1054.627441,1433.361816 1053.423218,1434.062256 1052.116943,1434.990967 
	C1050.976929,1432.220581 1050.196777,1429.381592 1049.168213,1426.251709 
z"/>
<path fill="#63D8DE" opacity="1.000000" stroke="none" 
	d="
M1144.910645,1219.568604 
	C1124.850464,1253.278564 1104.669800,1286.678955 1084.461792,1320.062744 
	C1070.272949,1343.503052 1056.053223,1366.924438 1041.813843,1390.333862 
	C1041.236694,1391.282959 1040.316040,1392.023193 1039.218506,1392.950073 
	C1036.244995,1387.293579 1033.729858,1381.487671 1030.931030,1375.821899 
	C1028.888672,1371.687500 1026.472656,1367.737793 1024.523682,1363.282104 
	C1026.237793,1361.513062 1028.031738,1360.398315 1029.008545,1358.787842 
	C1047.698486,1327.970581 1066.247681,1297.067871 1084.921387,1266.240479 
	C1098.598999,1243.660645 1112.413940,1221.163940 1126.167847,1198.630249 
	C1127.577881,1200.007080 1128.988037,1201.383789 1130.718506,1202.805420 
	C1135.618896,1208.317505 1140.198608,1213.784790 1144.910645,1219.568604 
z"/>
<path fill="#34C0E1" opacity="1.000000" stroke="none" 
	d="
M1159.628174,621.030945 
	C1158.939087,623.628235 1158.328857,626.614807 1156.847290,629.077087 
	C1123.844238,683.927429 1090.764404,738.731689 1057.657227,793.519348 
	C1036.761230,828.099182 1015.820984,862.652527 994.806091,897.160156 
	C993.483643,899.331665 991.339111,901.002502 989.228271,902.972168 
	C967.517883,886.456909 946.099670,869.948120 924.816772,853.266541 
	C912.768677,843.823181 900.833984,834.227661 889.049377,824.457947 
	C878.745850,815.916199 878.686584,794.937195 886.722168,784.528625 
	C892.486450,777.062134 900.639404,773.597168 908.176758,769.048401 
	C929.833496,755.978516 951.611328,743.108154 973.401550,730.260986 
	C995.069336,717.485962 1016.837585,704.881287 1038.510620,692.114868 
	C1059.743530,679.607605 1080.874146,666.926575 1102.119751,654.440796 
	C1121.130737,643.268311 1140.237061,632.257935 1159.628174,621.030945 
z"/>
<path fill="#53D9E0" opacity="1.000000" stroke="none" 
	d="
M983.941406,1311.386719 
	C986.072632,1308.583496 988.835388,1306.382080 990.553589,1303.547607 
	C1013.476013,1265.733276 1036.201416,1227.799316 1059.094971,1189.967285 
	C1066.147217,1178.313477 1073.559448,1166.877441 1080.979492,1155.026123 
	C1089.670166,1162.607910 1098.188110,1170.505371 1106.562012,1178.872681 
	C1105.079102,1181.018799 1103.531860,1182.569214 1102.432007,1184.389893 
	C1072.885010,1233.301025 1043.403809,1282.252075 1013.818481,1331.140015 
	C1012.268616,1333.701172 1009.898010,1335.765625 1007.909546,1338.061279 
	C999.968811,1329.272217 992.028137,1320.483154 983.941406,1311.386719 
z"/>
<path fill="#59D9DF" opacity="1.000000" stroke="none" 
	d="
M1008.047119,1338.379395 
	C1009.898010,1335.765625 1012.268616,1333.701172 1013.818481,1331.140015 
	C1043.403809,1282.252075 1072.885010,1233.301025 1102.432007,1184.389893 
	C1103.531860,1182.569214 1105.079102,1181.018799 1106.708984,1179.171387 
	C1113.292114,1185.352417 1119.584473,1191.704468 1126.022217,1198.343506 
	C1112.413940,1221.163940 1098.598999,1243.660645 1084.921387,1266.240479 
	C1066.247681,1297.067871 1047.698486,1327.970581 1029.008545,1358.787842 
	C1028.031738,1360.398315 1026.237793,1361.513062 1024.494873,1362.929443 
	C1018.838501,1354.899536 1013.511597,1346.798462 1008.047119,1338.379395 
z"/>
</svg>